<?xml version="1.0" standalone="no"?>
<!DOCTYPE svg PUBLIC "-//W3C//DTD SVG 20010904//EN"
 "http://www.w3.org/TR/2001/REC-SVG-20010904/DTD/svg10.dtd">
<svg version="1.0" xmlns="http://www.w3.org/2000/svg"
 width="129.000000pt" height="129.000000pt" viewBox="0 0 129.000000 129.000000"
 preserveAspectRatio="xMidYMid meet">
<metadata>
Created by potrace 1.14, written by Peter Selinger 2001-2017
</metadata>
<g transform="translate(0.000000,129.000000) scale(0.100000,-0.100000)"
fill="#000000" stroke="none">
<path d="M43 1262 l-32 -3 2 -622 2 -622 222 -1 c122 -1 229 -4 237 -7 8 -3
17 -3 20 0 3 3 146 5 318 4 172 -1 320 -1 328 -1 79 -1 106 2 117 12 10 8 13
124 13 593 l0 583 -37 33 c-37 33 -40 34 -123 33 -53 -1 -85 -5 -88 -13 -5
-15 -39 -14 -45 2 -5 17 -777 18 -798 0 -16 -13 -36 -12 -59 2 -16 10 -30 11
-77 7z m55 -1136 c-2 -15 -10 -21 -30 -21 -16 -1 -29 3 -29 7 -4 27 -4 34 4
39 4 3 19 4 33 1 19 -3 24 -10 22 -26z m1132 -1 c0 -19 -5 -22 -32 -21 -26 1
-34 6 -36 23 -2 16 3 22 20 25 35 6 48 -2 48 -27z"/>
</g>
</svg>
